{"asset":{"version":"2.0","generator":"Blockbench 5.0.7 glTF exporter"},"scenes":[{"nodes":[0,1,4,7,10],"name":"blockbench_export"}],"scene":0,"nodes":[{"translation":[-0.3125,0.875,0.2875],"name":"mesh","mesh":0},{"rotation":[0.7071067811865475,0,0,0.7071067811865476],"translation":[0,2.03125,0.30625],"name":"ScreenMesh","mesh":1},{"translation":[0,0.1875,0],"name":"BulbGlass","mesh":2},{"translation":[0,-0.2562500000000001,0],"name":"cylinder","mesh":3},{"rotation":[0.3694622782708855,0.36946227827088557,-0.6029076421267909,0.602907642126791],"translation":[0.5125000000000001,2.25625,0.375],"name":"Bulb1","children":[2,3]},{"translation":[0,0.1875,0],"name":"BulbGlass","mesh":4},{"translation":[0,-0.2562500000000001,0],"name":"cylinder","mesh":5},{"rotation":[0.1288599758485914,0.12885997584859143,-0.6952662127734242,0.6952662127734243],"translation":[0.5125000000000001,1.88125,0.375],"name":"Bulb2","children":[5,6]},{"translation":[0,0.1875,0],"name":"BulbGlass","mesh":6},{"translation":[0,-0.2562500000000001,0],"name":"cylinder","mesh":7},{"rotation":[0.6644630243886746,0.6644630243886747,-0.2418447626479753,0.24184476264797533],"translation":[0.5125,2.06875,0.375],"name":"Bulb3","children":[8,9]}],"bufferViews":[{"buffer":0,"byteOffset":0,"byteLength":1464,"target":34962,"byteStride":12},{"buffer":0,"byteOffset":1464,"byteLength":1464,"target":34962,"byteStride":12},{"buffer":0,"byteOffset":2928,"byteLength":976,"target":34962,"byteStride":8},{"buffer":0,"byteOffset":3904,"byteLength":360,"target":34963},{"buffer":0,"byteOffset":4264,"byteLength":48,"target":34962,"byteStride":12},{"buffer":0,"byteOffset":4312,"byteLength":48,"target":34962,"byteStride":12},{"buffer":0,"byteOffset":4360,"byteLength":32,"target":34962,"byteStride":8},{"buffer":0,"byteOffset":4392,"byteLength":12,"target":34963},{"buffer":0,"byteOffset":4404,"byteLength":2160,"target":34962,"byteStride":12},{"buffer":0,"byteOffset":6564,"byteLength":2160,"target":34962,"byteStride":12},{"buffer":0,"byteOffset":8724,"byteLength":1440,"target":34962,"byteStride":8},{"buffer":0,"byteOffset":10164,"byteLength":504,"target":34963},{"buffer":0,"byteOffset":10668,"byteLength":1824,"target":34962,"byteStride":12},{"buffer":0,"byteOffset":12492,"byteLength":1824,"target":34962,"byteStride":12},{"buffer":0,"byteOffset":14316,"byteLength":1216,"target":34962,"byteStride":8},{"buffer":0,"byteOffset":15532,"byteLength":384,"target":34963},{"buffer":0,"byteOffset":15916,"byteLength":2160,"target":34962,"byteStride":12},{"buffer":0,"byteOffset":18076,"byteLength":2160,"target":34962,"byteStride":12},{"buffer":0,"byteOffset":20236,"byteLength":1440,"target":34962,"byteStride":8},{"buffer":0,"byteOffset":21676,"byteLength":504,"target":34963},{"buffer":0,"byteOffset":22180,"byteLength":1824,"target":34962,"byteStride":12},{"buffer":0,"byteOffset":24004,"byteLength":1824,"target":34962,"byteStride":12},{"buffer":0,"byteOffset":25828,"byteLength":1216,"target":34962,"byteStride":8},{"buffer":0,"byteOffset":27044,"byteLength":384,"target":34963},{"buffer":0,"byteOffset":27428,"byteLength":2160,"target":34962,"byteStride":12},{"buffer":0,"byteOffset":29588,"byteLength":2160,"target":34962,"byteStride":12},{"buffer":0,"byteOffset":31748,"byteLength":1440,"target":34962,"byteStride":8},{"buffer":0,"byteOffset":33188,"byteLength":504,"target":34963},{"buffer":0,"byteOffset":33692,"byteLength":1824,"target":34962,"byteStride":12},{"buffer":0,"byteOffset":35516,"byteLength":1824,"target":34962,"byteStride":12},{"buffer":0,"byteOffset":37340,"byteLength":1216,"target":34962,"byteStride":8},{"buffer":0,"byteOffset":38556,"byteLength":384,"target":34963}],"buffers":[{"byteLength":38940,"uri":"data:application/octet-stream;base64,"}],"accessors":[{"bufferView":0,"componentType":5126,"count":122,"max":[0.8125,1.5625,0.15000000596046448],"min":[-0.1875,-0.1875,-0.2339056432247162],"type":"VEC3"},{"bufferView":1,"componentType":5126,"count":122,"max":[1,1,1],"min":[-1,-1,-1],"type":"VEC3"},{"bufferView":2,"componentType":5126,"count":122,"max":[0.734375,0.890625],"min":[0,0],"type":"VEC2"},{"bufferView":3,"componentType":5123,"count":180,"max":[121],"min":[0],"type":"SCALAR"},{"bufferView":4,"componentType":5126,"count":4,"max":[0.40625,0,0.3187499940395355],"min":[-0.40625,0,-0.3187499940395355],"type":"VEC3"},{"bufferView":5,"componentType":5126,"count":4,"max":[0,1,0],"min":[0,1,0],"type":"VEC3"},{"bufferView":6,"componentType":5126,"count":4,"max":[1,1],"min":[0,0],"type":"VEC2"},{"bufferView":7,"componentType":5123,"count":6,"max":[3],"min":[0],"type":"SCALAR"},{"bufferView":8,"componentType":5126,"count":180,"max":[0.05624999850988388,0.0625,0.05624999850988388],"min":[-0.05624999850988388,-0.1875,-0.05624999850988388],"type":"VEC3"},{"bufferView":9,"componentType":5126,"count":180,"max":[1,0.9584252834320068,1],"min":[-1,0,-1],"type":"VEC3"},{"bufferView":10,"componentType":5126,"count":180,"max":[0.46686163544654846,0.566789448261261],"min":[0.0016499999910593033,0],"type":"VEC2"},{"bufferView":11,"componentType":5123,"count":252,"max":[179],"min":[0],"type":"SCALAR"},{"bufferView":12,"componentType":5126,"count":152,"max":[0.0625,0.45625001192092896,0.0625],"min":[-0.0625,0.24375000596046448,-0.0625],"type":"VEC3"},{"bufferView":13,"componentType":5126,"count":152,"max":[1,1,1],"min":[-1,-1,-1],"type":"VEC3"},{"bufferView":14,"componentType":5126,"count":152,"max":[0.5385125279426575,0.512499988079071],"min":[0,0],"type":"VEC2"},{"bufferView":15,"componentType":5123,"count":192,"max":[151],"min":[0],"type":"SCALAR"},{"bufferView":16,"componentType":5126,"count":180,"max":[0.05624999850988388,0.0625,0.05624999850988388],"min":[-0.05624999850988388,-0.1875,-0.05624999850988388],"type":"VEC3"},{"bufferView":17,"componentType":5126,"count":180,"max":[1,0.9584252834320068,1],"min":[-1,0,-1],"type":"VEC3"},{"bufferView":18,"componentType":5126,"count":180,"max":[0.46686163544654846,0.566789448261261],"min":[0.0016499999910593033,0],"type":"VEC2"},{"bufferView":19,"componentType":5123,"count":252,"max":[179],"min":[0],"type":"SCALAR"},{"bufferView":20,"componentType":5126,"count":152,"max":[0.0625,0.45625001192092896,0.0625],"min":[-0.0625,0.24375000596046448,-0.0625],"type":"VEC3"},{"bufferView":21,"componentType":5126,"count":152,"max":[1,1,1],"min":[-1,-1,-1],"type":"VEC3"},{"bufferView":22,"componentType":5126,"count":152,"max":[0.5385125279426575,0.512499988079071],"min":[0,0],"type":"VEC2"},{"bufferView":23,"componentType":5123,"count":192,"max":[151],"min":[0],"type":"SCALAR"},{"bufferView":24,"componentType":5126,"count":180,"max":[0.05624999850988388,0.0625,0.05624999850988388],"min":[-0.05624999850988388,-0.1875,-0.05624999850988388],"type":"VEC3"},{"bufferView":25,"componentType":5126,"count":180,"max":[1,0.9584252834320068,1],"min":[-1,0,-1],"type":"VEC3"},{"bufferView":26,"componentType":5126,"count":180,"max":[0.46686163544654846,0.566789448261261],"min":[0.0016499999910593033,0],"type":"VEC2"},{"bufferView":27,"componentType":5123,"count":252,"max":[179],"min":[0],"type":"SCALAR"},{"bufferView":28,"componentType":5126,"count":152,"max":[0.0625,0.45625001192092896,0.0625],"min":[-0.0625,0.24375000596046448,-0.0625],"type":"VEC3"},{"bufferView":29,"componentType":5126,"count":152,"max":[1,1,1],"min":[-1,-1,-1],"type":"VEC3"},{"bufferView":30,"componentType":5126,"count":152,"max":[0.5385125279426575,0.512499988079071],"min":[0,0],"type":"VEC2"},{"bufferView":31,"componentType":5123,"count":192,"max":[151],"min":[0],"type":"SCALAR"}],"materials":[{"pbrMetallicRoughness":{"metallicFactor":0,"roughnessFactor":1,"baseColorTexture":{"index":0}},"alphaMode":"MASK","alphaCutoff":0.05,"doubleSided":true},{"pbrMetallicRoughness":{"metallicFactor":0,"roughnessFactor":1},"alphaMode":"MASK","alphaCutoff":0.05,"doubleSided":true},{"pbrMetallicRoughness":{"metallicFactor":0,"roughnessFactor":1,"baseColorTexture":{"index":1}},"alphaMode":"MASK","alphaCutoff":0.05,"doubleSided":true},{"pbrMetallicRoughness":{"metallicFactor":0,"roughnessFactor":1,"baseColorTexture":{"index":2}},"alphaMode":"MASK","alphaCutoff":0.05,"doubleSided":true}],"textures":[{"sampler":0,"source":0,"name":"texture"},{"sampler":1,"source":1,"name":"GlassTexture"},{"sampler":2,"source":2,"name":"FillamentTexture"}],"samplers":[{"magFilter":9728,"minFilter":9728,"wrapS":33071,"wrapT":33071},{"magFilter":9728,"minFilter":9728,"wrapS":33071,"wrapT":33071},{"magFilter":9728,"minFilter":9728,"wrapS":33071,"wrapT":33071}],"images":[{"mimeType":"image/png","uri":"data:image/png;base64,"},{"mimeType":"image/png","uri":"data:image/png;base64,"},{"mimeType":"image/png","uri":"data:image/png;base64,"}],"meshes":[{"primitives":[{"mode":4,"attributes":{"POSITION":0,"NORMAL":1,"TEXCOORD_0":2},"indices":3,"material":0}]},{"primitives":[{"mode":4,"attributes":{"POSITION":4,"NORMAL":5,"TEXCOORD_0":6},"indices":7,"material":1}]},{"primitives":[{"mode":4,"attributes":{"POSITION":8,"NORMAL":9,"TEXCOORD_0":10},"indices":11,"material":2}]},{"primitives":[{"mode":4,"attributes":{"POSITION":12,"NORMAL":13,"TEXCOORD_0":14},"indices":15,"material":3}]},{"primitives":[{"mode":4,"attributes":{"POSITION":16,"NORMAL":17,"TEXCOORD_0":18},"indices":19,"material":2}]},{"primitives":[{"mode":4,"attributes":{"POSITION":20,"NORMAL":21,"TEXCOORD_0":22},"indices":23,"material":3}]},{"primitives":[{"mode":4,"attributes":{"POSITION":24,"NORMAL":25,"TEXCOORD_0":26},"indices":27,"material":2}]},{"primitives":[{"mode":4,"attributes":{"POSITION":28,"NORMAL":29,"TEXCOORD_0":30},"indices":31,"material":3}]}]}