{"asset":{"version":"2.0","generator":"Blockbench 5.0.7 glTF exporter"},"scenes":[{"nodes":[0],"name":"blockbench_export"}],"scene":0,"nodes":[{"translation":[0,1,0],"name":"cylinder","mesh":0}],"bufferViews":[{"buffer":0,"byteOffset":0,"byteLength":3552,"target":34962,"byteStride":12},{"buffer":0,"byteOffset":3552,"byteLength":3552,"target":34962,"byteStride":12},{"buffer":0,"byteOffset":7104,"byteLength":2368,"target":34962,"byteStride":8},{"buffer":0,"byteOffset":9472,"byteLength":816,"target":34963}],"buffers":[{"byteLength":10288,"uri":"data:application/octet-stream;base64,"}],"accessors":[{"bufferView":0,"componentType":5126,"count":296,"max":[0.28125,1.1875,0.28125],"min":[-0.28125,-1,-0.28125],"type":"VEC3"},{"bufferView":1,"componentType":5126,"count":296,"max":[1,0.8814118504524231,1],"min":[-1,-1,-1],"type":"VEC3"},{"bufferView":2,"componentType":5126,"count":296,"max":[0.6875,0.7501395344734192],"min":[0,0],"type":"VEC2"},{"bufferView":3,"componentType":5123,"count":408,"max":[295],"min":[0],"type":"SCALAR"}],"materials":[{"pbrMetallicRoughness":{"metallicFactor":0,"roughnessFactor":1,"baseColorTexture":{"index":0}},"alphaMode":"MASK","alphaCutoff":0.05,"doubleSided":true}],"textures":[{"sampler":0,"source":0,"name":"texture.png"}],"samplers":[{"magFilter":9728,"minFilter":9728,"wrapS":33071,"wrapT":33071}],"images":[{"mimeType":"image/png","uri":"data:image/png;base64,"}],"meshes":[{"primitives":[{"mode":4,"attributes":{"POSITION":0,"NORMAL":1,"TEXCOORD_0":2},"indices":3,"material":0}]}]}