{"asset":{"version":"2.0","generator":"Blockbench 5.0.7 glTF exporter"},"scenes":[{"nodes":[1,3,8],"name":"blockbench_export"}],"scene":0,"nodes":[{"translation":[0,1.375,0],"name":"TheBowl","mesh":0},{"name":"FishBowl","children":[0]},{"translation":[0,-0.0625,0.0625],"name":"sphere","mesh":1},{"translation":[0,1.375,0],"name":"Brain","children":[2]},{"translation":[0,0.125,0],"name":"MachineBase","mesh":2},{"translation":[0.8125,0.875,0.1875],"name":"Tubes","mesh":3},{"translation":[0.8125,0.46875,-0.1875],"name":"Diodes","mesh":4},{"translation":[0,-0.0625,0],"name":"NixieTubes","children":[5,6]},{"name":"Machine","children":[4,7]}],"bufferViews":[{"buffer":0,"byteOffset":0,"byteLength":3168,"target":34962,"byteStride":12},{"buffer":0,"byteOffset":3168,"byteLength":3168,"target":34962,"byteStride":12},{"buffer":0,"byteOffset":6336,"byteLength":2112,"target":34962,"byteStride":8},{"buffer":0,"byteOffset":8448,"byteLength":720,"target":34963},{"buffer":0,"byteOffset":9168,"byteLength":5184,"target":34962,"byteStride":12},{"buffer":0,"byteOffset":14352,"byteLength":5184,"target":34962,"byteStride":12},{"buffer":0,"byteOffset":19536,"byteLength":3456,"target":34962,"byteStride":8},{"buffer":0,"byteOffset":22992,"byteLength":1188,"target":34963},{"buffer":0,"byteOffset":24180,"byteLength":1440,"target":34962,"byteStride":12},{"buffer":0,"byteOffset":25620,"byteLength":1440,"target":34962,"byteStride":12},{"buffer":0,"byteOffset":27060,"byteLength":960,"target":34962,"byteStride":8},{"buffer":0,"byteOffset":28020,"byteLength":336,"target":34963},{"buffer":0,"byteOffset":28356,"byteLength":4320,"target":34962,"byteStride":12},{"buffer":0,"byteOffset":32676,"byteLength":4320,"target":34962,"byteStride":12},{"buffer":0,"byteOffset":36996,"byteLength":2880,"target":34962,"byteStride":8},{"buffer":0,"byteOffset":39876,"byteLength":1008,"target":34963},{"buffer":0,"byteOffset":40884,"byteLength":2304,"target":34962,"byteStride":12},{"buffer":0,"byteOffset":43188,"byteLength":2304,"target":34962,"byteStride":12},{"buffer":0,"byteOffset":45492,"byteLength":1536,"target":34962,"byteStride":8},{"buffer":0,"byteOffset":47028,"byteLength":576,"target":34963},{"buffer":0,"byteOffset":47604,"byteLength":144},{"buffer":0,"byteOffset":47748,"byteLength":576},{"buffer":0,"byteOffset":48324,"byteLength":200},{"buffer":0,"byteOffset":48524,"byteLength":600}],"buffers":[{"byteLength":49124,"uri":"data:application/octet-stream;base64,"}],"accessors":[{"bufferView":0,"componentType":5126,"count":264,"max":[0.6875,0.6875,0.6875],"min":[-0.6875,-0.6875,-0.6875],"type":"VEC3"},{"bufferView":1,"componentType":5126,"count":264,"max":[0.9659258127212524,0.9659258127212524,0.9659258127212524],"min":[-0.9659258127212524,-0.9659258127212524,-0.9659258127212524],"type":"VEC3"},{"bufferView":2,"componentType":5126,"count":264,"max":[0.9728612899780273,0.84375],"min":[0.0010844896314665675,0],"type":"VEC2"},{"bufferView":3,"componentType":5123,"count":360,"max":[263],"min":[0],"type":"SCALAR"},{"bufferView":4,"componentType":5126,"count":432,"max":[0.3125,0.25,0.5],"min":[-0.3125,-0.29284363985061646,-0.5],"type":"VEC3"},{"bufferView":5,"componentType":5126,"count":432,"max":[0.948226273059845,0.9911444187164307,0.9350029826164246],"min":[-0.948226273059845,-0.9985133409500122,-0.8814123868942261],"type":"VEC3"},{"bufferView":6,"componentType":5126,"count":432,"max":[0.5989553928375244,0.484375],"min":[0.0018663108348846436,0],"type":"VEC2"},{"bufferView":7,"componentType":5123,"count":594,"max":[431],"min":[0],"type":"SCALAR"},{"bufferView":8,"componentType":5126,"count":120,"max":[1,0.75,0.625],"min":[-0.625,-0.125,-0.625],"type":"VEC3"},{"bufferView":9,"componentType":5126,"count":120,"max":[1,1,1],"min":[-1,-1,-1],"type":"VEC3"},{"bufferView":10,"componentType":5126,"count":120,"max":[0.859375,0.9740124940872192],"min":[0,0],"type":"VEC2"},{"bufferView":11,"componentType":5123,"count":168,"max":[119],"min":[0],"type":"SCALAR"},{"bufferView":12,"componentType":5126,"count":360,"max":[0.0625,0.0625,0.0625],"min":[-0.0625,-0.25,-0.4375],"type":"VEC3"},{"bufferView":13,"componentType":5126,"count":360,"max":[1,0.9659258127212524,1],"min":[-1,0,-1],"type":"VEC3"},{"bufferView":14,"componentType":5126,"count":360,"max":[0.8624177575111389,0.8816606402397156],"min":[0.012262499891221523,0],"type":"VEC2"},{"bufferView":15,"componentType":5123,"count":504,"max":[359],"min":[0],"type":"SCALAR"},{"bufferView":16,"componentType":5126,"count":192,"max":[0.03125,0.4375,0.40625],"min":[-0.03125,0.1875,-0.03125],"type":"VEC3"},{"bufferView":17,"componentType":5126,"count":192,"max":[1,1,1],"min":[-1,-1,-1],"type":"VEC3"},{"bufferView":18,"componentType":5126,"count":192,"max":[0.9375,0.9375],"min":[0,0],"type":"VEC2"},{"bufferView":19,"componentType":5123,"count":288,"max":[191],"min":[0],"type":"SCALAR"},{"bufferView":20,"componentType":5126,"count":36,"max":[3],"min":[0],"type":"SCALAR"},{"bufferView":21,"componentType":5126,"count":36,"max":[0,0.04360444098711014,0.026152033358812332,1],"min":[-0.0011418224312365055,-0.0032319016754627228,-0.026176948100328445,0.9987058639526367],"type":"VEC4"},{"bufferView":22,"componentType":5126,"count":50,"max":[3],"min":[0],"type":"SCALAR"},{"bufferView":23,"componentType":5126,"count":50,"max":[0.03125,1.4093749523162842,0.012948495335876942],"min":[-0.002314814832061529,1.3435330390930176,-0.01927083358168602],"type":"VEC3"}],"materials":[{"pbrMetallicRoughness":{"metallicFactor":0,"roughnessFactor":1,"baseColorTexture":{"index":0}},"alphaMode":"MASK","alphaCutoff":0.05,"doubleSided":true},{"pbrMetallicRoughness":{"metallicFactor":0,"roughnessFactor":1,"baseColorTexture":{"index":1}},"alphaMode":"MASK","alphaCutoff":0.05,"doubleSided":true},{"pbrMetallicRoughness":{"metallicFactor":0,"roughnessFactor":1,"baseColorTexture":{"index":2}},"alphaMode":"MASK","alphaCutoff":0.05,"doubleSided":true},{"pbrMetallicRoughness":{"metallicFactor":0,"roughnessFactor":1,"baseColorTexture":{"index":3}},"alphaMode":"MASK","alphaCutoff":0.05,"doubleSided":true},{"pbrMetallicRoughness":{"metallicFactor":0,"roughnessFactor":1,"baseColorTexture":{"index":4}},"alphaMode":"MASK","alphaCutoff":0.05,"doubleSided":true}],"textures":[{"sampler":0,"source":0,"name":"texture"},{"sampler":1,"source":1,"name":"texture"},{"sampler":2,"source":2,"name":"MachineTexture"},{"sampler":3,"source":3,"name":"texture"},{"sampler":4,"source":4,"name":"texture"}],"samplers":[{"magFilter":9728,"minFilter":9728,"wrapS":33071,"wrapT":33071},{"magFilter":9728,"minFilter":9728,"wrapS":33071,"wrapT":33071},{"magFilter":9728,"minFilter":9728,"wrapS":33071,"wrapT":33071},{"magFilter":9728,"minFilter":9728,"wrapS":33071,"wrapT":33071},{"magFilter":9728,"minFilter":9728,"wrapS":33071,"wrapT":33071}],"images":[{"mimeType":"image/png","uri":"data:image/png;base64,"},{"mimeType":"image/png","uri":"data:image/png;base64,"},{"mimeType":"image/png","uri":"data:image/png;base64,"},{"mimeType":"image/png","uri":"data:image/png;base64,"},{"mimeType":"image/png","uri":"data:image/png;base64,"}],"meshes":[{"primitives":[{"mode":4,"attributes":{"POSITION":0,"NORMAL":1,"TEXCOORD_0":2},"indices":3,"material":0}]},{"primitives":[{"mode":4,"attributes":{"POSITION":4,"NORMAL":5,"TEXCOORD_0":6},"indices":7,"material":1}]},{"primitives":[{"mode":4,"attributes":{"POSITION":8,"NORMAL":9,"TEXCOORD_0":10},"indices":11,"material":2}]},{"primitives":[{"mode":4,"attributes":{"POSITION":12,"NORMAL":13,"TEXCOORD_0":14},"indices":15,"material":3}]},{"primitives":[{"mode":4,"attributes":{"POSITION":16,"NORMAL":17,"TEXCOORD_0":18},"indices":19,"material":4}]}],"animations":[{"name":"BrainFloatingAnimation","samplers":[{"input":20,"output":21,"interpolation":"LINEAR"},{"input":22,"output":23,"interpolation":"LINEAR"}],"channels":[{"sampler":0,"target":{"node":3,"path":"rotation"}},{"sampler":1,"target":{"node":3,"path":"translation"}}]}]}