{"asset":{"version":"2.0","generator":"Blockbench 5.0.7 glTF exporter"},"scenes":[{"nodes":[1,3],"name":"blockbench_export"}],"scene":0,"nodes":[{"rotation":[0,0,0.7071067811865475,0.7071067811865476],"translation":[0.0625,0.4375,0],"name":"mesh","mesh":0},{"translation":[0.25,-0.1875,0],"name":"Arm","children":[0]},{"translation":[0.24620187500000001,0.05033812500000001,0.125],"name":"cone","mesh":1},{"rotation":[0,0,0.08715574274765817,0.9961946980917455],"translation":[0.0625,0.3125,0],"name":"Head","children":[2]}],"bufferViews":[{"buffer":0,"byteOffset":0,"byteLength":480,"target":34962,"byteStride":12},{"buffer":0,"byteOffset":480,"byteLength":480,"target":34962,"byteStride":12},{"buffer":0,"byteOffset":960,"byteLength":320,"target":34962,"byteStride":8},{"buffer":0,"byteOffset":1280,"byteLength":120,"target":34963},{"buffer":0,"byteOffset":1400,"byteLength":1536,"target":34962,"byteStride":12},{"buffer":0,"byteOffset":2936,"byteLength":1536,"target":34962,"byteStride":12},{"buffer":0,"byteOffset":4472,"byteLength":1024,"target":34962,"byteStride":8},{"buffer":0,"byteOffset":5496,"byteLength":348,"target":34963},{"buffer":0,"byteOffset":5844,"byteLength":8},{"buffer":0,"byteOffset":5852,"byteLength":32},{"buffer":0,"byteOffset":5884,"byteLength":8},{"buffer":0,"byteOffset":5892,"byteLength":32},{"buffer":0,"byteOffset":5924,"byteLength":1976},{"buffer":0,"byteOffset":7900,"byteLength":7904}],"buffers":[{"byteLength":15804,"uri":"data:application/octet-stream;base64,"}],"accessors":[{"bufferView":0,"componentType":5126,"count":40,"max":[0.125,0.3125,0.0625],"min":[-0.25,-0.4375,-0.0625],"type":"VEC3"},{"bufferView":1,"componentType":5126,"count":40,"max":[1,1,1],"min":[-1,-1,-1],"type":"VEC3"},{"bufferView":2,"componentType":5126,"count":40,"max":[1,0.9375],"min":[0,0],"type":"VEC2"},{"bufferView":3,"componentType":5123,"count":60,"max":[39],"min":[0],"type":"SCALAR"},{"bufferView":4,"componentType":5126,"count":128,"max":[0.0625,0.28125,0.0625],"min":[-0.6875,-0.03125,-0.3125],"type":"VEC3"},{"bufferView":5,"componentType":5126,"count":128,"max":[1,1,1],"min":[-1,-1,-1],"type":"VEC3"},{"bufferView":6,"componentType":5126,"count":128,"max":[0.8125,0.71875],"min":[0,0],"type":"VEC2"},{"bufferView":7,"componentType":5123,"count":174,"max":[127],"min":[0],"type":"SCALAR"},{"bufferView":8,"componentType":5126,"count":2,"max":[3],"min":[0],"type":"SCALAR"},{"bufferView":9,"componentType":5126,"count":2,"max":[0.04357787221670151,0,0.08715574443340302,0.9961947202682495],"min":[0,-0.49809736013412476,0.07547909021377563,0.8627299070358276],"type":"VEC4"},{"bufferView":10,"componentType":5126,"count":2,"max":[3],"min":[0],"type":"SCALAR"},{"bufferView":11,"componentType":5126,"count":2,"max":[0,0.49809736013412476,0.08715574443340302,0.9961947202682495],"min":[-0.04357787221670151,0,0.07547909021377563,0.8627299070358276],"type":"VEC4"},{"bufferView":12,"componentType":5126,"count":494,"max":[26],"min":[0],"type":"SCALAR"},{"bufferView":13,"componentType":5126,"count":494,"max":[0.04357787221670151,0.49809736013412476,0.08715573698282242,0.99619460105896],"min":[-0.04357787221670151,-0.49809736013412476,0.07547909021377563,0.8627299070358276],"type":"VEC4"}],"materials":[{"pbrMetallicRoughness":{"metallicFactor":0,"roughnessFactor":1,"baseColorTexture":{"index":0}},"alphaMode":"MASK","alphaCutoff":0.05,"doubleSided":true},{"pbrMetallicRoughness":{"metallicFactor":0,"roughnessFactor":1,"baseColorTexture":{"index":1}},"alphaMode":"MASK","alphaCutoff":0.05,"doubleSided":true}],"textures":[{"sampler":0,"source":0,"name":"Arm.png"},{"sampler":1,"source":1,"name":"Head.png"}],"samplers":[{"magFilter":9728,"minFilter":9728,"wrapS":33071,"wrapT":33071},{"magFilter":9728,"minFilter":9728,"wrapS":33071,"wrapT":33071}],"images":[{"mimeType":"image/png","uri":"data:image/png;base64,"},{"mimeType":"image/png","uri":"data:image/png;base64,"}],"meshes":[{"primitives":[{"mode":4,"attributes":{"POSITION":0,"NORMAL":1,"TEXCOORD_0":2},"indices":3,"material":0}]},{"primitives":[{"mode":4,"attributes":{"POSITION":4,"NORMAL":5,"TEXCOORD_0":6},"indices":7,"material":1}]}],"animations":[{"name":"TurnLeft","samplers":[{"input":8,"output":9,"interpolation":"LINEAR"}],"channels":[{"sampler":0,"target":{"node":3,"path":"rotation"}}]},{"name":"TurnRight","samplers":[{"input":10,"output":11,"interpolation":"LINEAR"}],"channels":[{"sampler":0,"target":{"node":3,"path":"rotation"}}]},{"name":"TurnLoop","samplers":[{"input":12,"output":13,"interpolation":"LINEAR"}],"channels":[{"sampler":0,"target":{"node":3,"path":"rotation"}}]}]}