{"asset":{"version":"2.0","generator":"Blockbench 5.0.7 glTF exporter"},"scenes":[{"nodes":[5,7,9],"name":"blockbench_export"}],"scene":0,"nodes":[{"translation":[0.25,-0.1875,-0.125],"name":"Wheel1"},{"translation":[0.25,-0.1875,0.3125],"name":"Wheel2"},{"rotation":[0,-1,0,6.123233995736766e-17],"translation":[-0.25,-0.1875,0.3125],"name":"Wheel3"},{"rotation":[0,0,0.7071067811865475,0.7071067811865476],"translation":[0,0.03125,0],"name":"cylinder","mesh":0},{"rotation":[0,-1,0,6.123233995736766e-17],"translation":[-0.25,-0.1875,-0.125],"name":"Wheel4","children":[3]},{"translation":[0,0.1875,-0.09375],"name":"Cabnet","children":[0,1,2,4]},{"translation":[0,0.5,0],"name":"mesh","mesh":1},{"translation":[0,0.1875,-0.09375],"name":"DrawTop","children":[6]},{"name":"mesh","mesh":2},{"translation":[0,0.1875,-0.09375],"name":"DrawBottom","children":[8]}],"bufferViews":[{"buffer":0,"byteOffset":0,"byteLength":8112,"target":34962,"byteStride":12},{"buffer":0,"byteOffset":8112,"byteLength":8112,"target":34962,"byteStride":12},{"buffer":0,"byteOffset":16224,"byteLength":5408,"target":34962,"byteStride":8},{"buffer":0,"byteOffset":21632,"byteLength":1716,"target":34963},{"buffer":0,"byteOffset":23348,"byteLength":288,"target":34962,"byteStride":12},{"buffer":0,"byteOffset":23636,"byteLength":288,"target":34962,"byteStride":12},{"buffer":0,"byteOffset":23924,"byteLength":192,"target":34962,"byteStride":8},{"buffer":0,"byteOffset":24116,"byteLength":72,"target":34963},{"buffer":0,"byteOffset":24188,"byteLength":288,"target":34962,"byteStride":12},{"buffer":0,"byteOffset":24476,"byteLength":288,"target":34962,"byteStride":12},{"buffer":0,"byteOffset":24764,"byteLength":192,"target":34962,"byteStride":8},{"buffer":0,"byteOffset":24956,"byteLength":72,"target":34963},{"buffer":0,"byteOffset":25028,"byteLength":8},{"buffer":0,"byteOffset":25036,"byteLength":24},{"buffer":0,"byteOffset":25060,"byteLength":8},{"buffer":0,"byteOffset":25068,"byteLength":24},{"buffer":0,"byteOffset":25092,"byteLength":8},{"buffer":0,"byteOffset":25100,"byteLength":24},{"buffer":0,"byteOffset":25124,"byteLength":8},{"buffer":0,"byteOffset":25132,"byteLength":24}],"buffers":[{"byteLength":25156,"uri":"data:application/octet-stream;base64,"}],"accessors":[{"bufferView":0,"componentType":5126,"count":676,"max":[1.296875,0.625,0.171875],"min":[-0.03125,-0.125,-0.609375],"type":"VEC3"},{"bufferView":1,"componentType":5126,"count":676,"max":[1,1,1],"min":[-1,-1,-1],"type":"VEC3"},{"bufferView":2,"componentType":5126,"count":676,"max":[0.6973437666893005,0.703125],"min":[0,0],"type":"VEC2"},{"bufferView":3,"componentType":5123,"count":858,"max":[675],"min":[0],"type":"SCALAR"},{"bufferView":4,"componentType":5126,"count":24,"max":[0.25,0.4375,0.25],"min":[-0.25,0.0625,-0.25],"type":"VEC3"},{"bufferView":5,"componentType":5126,"count":24,"max":[1,1,1],"min":[-1,-1,-1],"type":"VEC3"},{"bufferView":6,"componentType":5126,"count":24,"max":[0.53125,0.75],"min":[0,0],"type":"VEC2"},{"bufferView":7,"componentType":5123,"count":36,"max":[23],"min":[0],"type":"SCALAR"},{"bufferView":8,"componentType":5126,"count":24,"max":[0.25,0.4375,0.25],"min":[-0.25,0.0625,-0.25],"type":"VEC3"},{"bufferView":9,"componentType":5126,"count":24,"max":[1,1,1],"min":[-1,-1,-1],"type":"VEC3"},{"bufferView":10,"componentType":5126,"count":24,"max":[0.53125,0.75],"min":[0,0],"type":"VEC2"},{"bufferView":11,"componentType":5123,"count":36,"max":[23],"min":[0],"type":"SCALAR"},{"bufferView":12,"componentType":5126,"count":2,"max":[3],"min":[0],"type":"SCALAR"},{"bufferView":13,"componentType":5126,"count":2,"max":[0,0.1875,-0.09375],"min":[0,0.1875,-0.5625],"type":"VEC3"},{"bufferView":14,"componentType":5126,"count":2,"max":[3],"min":[0],"type":"SCALAR"},{"bufferView":15,"componentType":5126,"count":2,"max":[0,0.1875,-0.09375],"min":[0,0.1875,-0.5625],"type":"VEC3"},{"bufferView":16,"componentType":5126,"count":2,"max":[3],"min":[0],"type":"SCALAR"},{"bufferView":17,"componentType":5126,"count":2,"max":[0,0.1875,-0.09375],"min":[0,0.1875,-0.5625],"type":"VEC3"},{"bufferView":18,"componentType":5126,"count":2,"max":[3],"min":[0],"type":"SCALAR"},{"bufferView":19,"componentType":5126,"count":2,"max":[0,0.1875,-0.09375],"min":[0,0.1875,-0.5625],"type":"VEC3"}],"materials":[{"pbrMetallicRoughness":{"metallicFactor":0,"roughnessFactor":1,"baseColorTexture":{"index":0}},"alphaMode":"MASK","alphaCutoff":0.05,"doubleSided":true},{"pbrMetallicRoughness":{"metallicFactor":0,"roughnessFactor":1,"baseColorTexture":{"index":1}},"alphaMode":"MASK","alphaCutoff":0.05,"doubleSided":true},{"pbrMetallicRoughness":{"metallicFactor":0,"roughnessFactor":1,"baseColorTexture":{"index":2}},"alphaMode":"MASK","alphaCutoff":0.05,"doubleSided":true}],"textures":[{"sampler":0,"source":0,"name":"CabnetTexture.png"},{"sampler":1,"source":1,"name":"TopDrawTexture.png"},{"sampler":2,"source":2,"name":"BottomDrawTexture.png"}],"samplers":[{"magFilter":9728,"minFilter":9728,"wrapS":33071,"wrapT":33071},{"magFilter":9728,"minFilter":9728,"wrapS":33071,"wrapT":33071},{"magFilter":9728,"minFilter":9728,"wrapS":33071,"wrapT":33071}],"images":[{"mimeType":"image/png","uri":"data:image/png;base64,"},{"mimeType":"image/png","uri":"data:image/png;base64,"},{"mimeType":"image/png","uri":"data:image/png;base64,"}],"meshes":[{"primitives":[{"mode":4,"attributes":{"POSITION":0,"NORMAL":1,"TEXCOORD_0":2},"indices":3,"material":0}]},{"primitives":[{"mode":4,"attributes":{"POSITION":4,"NORMAL":5,"TEXCOORD_0":6},"indices":7,"material":1}]},{"primitives":[{"mode":4,"attributes":{"POSITION":8,"NORMAL":9,"TEXCOORD_0":10},"indices":11,"material":2}]}],"animations":[{"name":"TopDrawOpen","samplers":[{"input":12,"output":13,"interpolation":"LINEAR"}],"channels":[{"sampler":0,"target":{"node":7,"path":"translation"}}]},{"name":"TopDrawClose","samplers":[{"input":14,"output":15,"interpolation":"LINEAR"}],"channels":[{"sampler":0,"target":{"node":7,"path":"translation"}}]},{"name":"BottomDrawOpen","samplers":[{"input":16,"output":17,"interpolation":"LINEAR"}],"channels":[{"sampler":0,"target":{"node":9,"path":"translation"}}]},{"name":"BottomDrawClose","samplers":[{"input":18,"output":19,"interpolation":"LINEAR"}],"channels":[{"sampler":0,"target":{"node":9,"path":"translation"}}]}]}