{"asset":{"version":"2.0","generator":"Blockbench 5.0.7 glTF exporter"},"scenes":[{"nodes":[0,2],"name":"blockbench_export"}],"scene":0,"nodes":[{"translation":[0,0.01875,0],"name":"ControlStation","mesh":0},{"translation":[0,-1.9375,0],"name":"GlassCylander","mesh":1},{"translation":[0,0.01875,0],"name":"GlassBulb","children":[1]}],"bufferViews":[{"buffer":0,"byteOffset":0,"byteLength":1728,"target":34962,"byteStride":12},{"buffer":0,"byteOffset":1728,"byteLength":1728,"target":34962,"byteStride":12},{"buffer":0,"byteOffset":3456,"byteLength":1152,"target":34962,"byteStride":8},{"buffer":0,"byteOffset":4608,"byteLength":396,"target":34963},{"buffer":0,"byteOffset":5004,"byteLength":576,"target":34962,"byteStride":12},{"buffer":0,"byteOffset":5580,"byteLength":576,"target":34962,"byteStride":12},{"buffer":0,"byteOffset":6156,"byteLength":384,"target":34962,"byteStride":8},{"buffer":0,"byteOffset":6540,"byteLength":144,"target":34963},{"buffer":0,"byteOffset":6684,"byteLength":8},{"buffer":0,"byteOffset":6692,"byteLength":24},{"buffer":0,"byteOffset":6716,"byteLength":8},{"buffer":0,"byteOffset":6724,"byteLength":24}],"buffers":[{"byteLength":6748,"uri":"data:application/octet-stream;base64,"}],"accessors":[{"bufferView":0,"componentType":5126,"count":144,"max":[0.5,0.7927024960517883,0.5],"min":[-0.5,-0.03125,-0.5196725130081177],"type":"VEC3"},{"bufferView":1,"componentType":5126,"count":144,"max":[1,1,1],"min":[-1,-0.8191512823104858,-1],"type":"VEC3"},{"bufferView":2,"componentType":5126,"count":144,"max":[0.5625,0.484375],"min":[0,0],"type":"VEC2"},{"bufferView":3,"componentType":5123,"count":198,"max":[143],"min":[0],"type":"SCALAR"},{"bufferView":4,"componentType":5126,"count":48,"max":[0.5,1.25,0.5],"min":[-0.5,0,-0.5],"type":"VEC3"},{"bufferView":5,"componentType":5126,"count":48,"max":[1,0,1],"min":[-1,0,-1],"type":"VEC3"},{"bufferView":6,"componentType":5126,"count":48,"max":[0.420793741941452,0.640625],"min":[0.0010812500258907676,0],"type":"VEC2"},{"bufferView":7,"componentType":5123,"count":72,"max":[47],"min":[0],"type":"SCALAR"},{"bufferView":8,"componentType":5126,"count":2,"max":[1],"min":[0],"type":"SCALAR"},{"bufferView":9,"componentType":5126,"count":2,"max":[0,1.9562499523162842,0],"min":[0,0.01875000074505806,0],"type":"VEC3"},{"bufferView":10,"componentType":5126,"count":2,"max":[1],"min":[0],"type":"SCALAR"},{"bufferView":11,"componentType":5126,"count":2,"max":[0,1.9562499523162842,0],"min":[0,0.01875000074505806,0],"type":"VEC3"}],"materials":[{"pbrMetallicRoughness":{"metallicFactor":0,"roughnessFactor":1,"baseColorTexture":{"index":0}},"alphaMode":"MASK","alphaCutoff":0.05,"doubleSided":true},{"pbrMetallicRoughness":{"metallicFactor":0,"roughnessFactor":1,"baseColorTexture":{"index":1}},"alphaMode":"MASK","alphaCutoff":0.05,"doubleSided":true}],"textures":[{"sampler":0,"source":0,"name":"ControlStationTexture.png"},{"sampler":1,"source":1,"name":"GlassBulbTexture.png"}],"samplers":[{"magFilter":9728,"minFilter":9728,"wrapS":33071,"wrapT":33071},{"magFilter":9728,"minFilter":9728,"wrapS":33071,"wrapT":33071}],"images":[{"mimeType":"image/png","uri":"data:image/png;base64,"},{"mimeType":"image/png","uri":"data:image/png;base64,"}],"meshes":[{"primitives":[{"mode":4,"attributes":{"POSITION":0,"NORMAL":1,"TEXCOORD_0":2},"indices":3,"material":0}]},{"primitives":[{"mode":4,"attributes":{"POSITION":4,"NORMAL":5,"TEXCOORD_0":6},"indices":7,"material":1}]}],"animations":[{"name":"ClassBulbClose","samplers":[{"input":8,"output":9,"interpolation":"LINEAR"}],"channels":[{"sampler":0,"target":{"node":2,"path":"translation"}}]},{"name":"ClassBulbOpen","samplers":[{"input":10,"output":11,"interpolation":"LINEAR"}],"channels":[{"sampler":0,"target":{"node":2,"path":"translation"}}]}]}